# xmcd
#
# Track frame offsets: 
#        150
#        12110
#        23652
#        36309
#        49134
#        61201
#        76253
#        87786
#        99830
#        112429
#        124570
#        135973
#        148120
#        161983
#        175622
#        190878
#        202027
#        218638
#        231640
#        244808
#        261673
#        279035
#        292662
#        305988
#        319651
#        334528
#        347462
#
# Disc length: 4773 seconds
#
# Revision: 1
# Processed by: cddbd v1.5.2PL0 Copyright (c) Steve Scherf et al.
# Submitted via: ExactAudioCopyFreeDBPlugin 1.0
#
DISCID=8312a31b
DTITLE=The Ronettes - Everything You Wanted to Know About the Ronettes
DTITLE=. . . But Were Afraid to Ask
DYEAR=2017
DGENRE=Rhythm and Blues
TTITLE0=Be My Baby
TTITLE1=Baby, I Love You
TTITLE2=(The Best Part Of) Breakin' Up
TTITLE3=Do I Love You?
TTITLE4=Why Don't They Let Us Fall in Love
TTITLE5=Walking in the Rain
TTITLE6=How Does it Feel
TTITLE7=I Wonder
TTITLE8=You, Baby
TTITLE9=When I Saw You
TTITLE10=Keep on Dancing
TTITLE11=Girls Can Tell
TTITLE12=Padre
TTITLE13=Born to Be Together
TTITLE14=Is This What I Get for Loving You?
TTITLE15=Oh, I Love You
TTITLE16=Paradise
TTITLE17=Soldier Baby (Of Mine)
TTITLE18=(I'm A) Woman in Love
TTITLE19=Everything Under the Sun
TTITLE20=I Wish I Never Saw the Sunshine
TTITLE21=Here I Sit
TTITLE22=(Baby Let's Be) Lovers
TTITLE23=Close Your Eyes
TTITLE24=I Can Hear Music
TTITLE25=You Came, You Saw, You Conquered
TTITLE26=Someday (Baby)
EXTD=
EXTT0=
EXTT1=
EXTT2=
EXTT3=
EXTT4=
EXTT5=
EXTT6=
EXTT7=
EXTT8=
EXTT9=
EXTT10=
EXTT11=
EXTT12=
EXTT13=
EXTT14=
EXTT15=
EXTT16=
EXTT17=
EXTT18=
EXTT19=
EXTT20=
EXTT21=
EXTT22=
EXTT23=
EXTT24=
EXTT25=
EXTT26=
PLAYORDER=
